<svg width="100" height="96" viewBox="0 0 100 96" fill="none" xmlns="http://www.w3.org/2000/svg">
<path d="M24.5674 12H23.4346C23.4085 12 23.3955 11.9837 23.3955 11.9512L23.415 5.08105C23.415 5.05501 23.4281 5.04199 23.4541 5.04199H24.6748C24.7008 5.04199 24.7236 5.05501 24.7432 5.08105L25.6562 6.39941L26.5645 5.08105C26.584 5.05501 26.6084 5.04199 26.6377 5.04199H27.8633C27.8926 5.04199 27.9072 5.05501 27.9072 5.08105L27.9268 11.9512C27.9268 11.9837 27.9137 12 27.8877 12H26.7549C26.7288 12 26.7158 11.9837 26.7158 11.9512L26.7061 6.84863L25.6562 8.37207L24.6162 6.84863L24.6064 11.9512C24.6064 11.9837 24.5934 12 24.5674 12ZM35.8381 12H32.6057C32.5796 12 32.5666 11.9837 32.5666 11.9512L32.5764 5.08105C32.5764 5.05501 32.5894 5.04199 32.6154 5.04199H35.8283C35.8544 5.04199 35.8674 5.05827 35.8674 5.09082V6.20898C35.8674 6.23503 35.8544 6.24805 35.8283 6.24805H33.7775V7.81055H35.8283C35.8544 7.81055 35.8674 7.82357 35.8674 7.84961L35.8771 8.98242C35.8771 9.00846 35.8641 9.02148 35.8381 9.02148H33.7775V10.7695H35.8381C35.8641 10.7695 35.8771 10.7858 35.8771 10.8184V11.9609C35.8771 11.987 35.8641 12 35.8381 12ZM43.8373 12H40.6049C40.5788 12 40.5658 11.9837 40.5658 11.9512L40.5756 5.09082C40.5756 5.05827 40.5919 5.04199 40.6244 5.04199H41.7377C41.7702 5.04199 41.7865 5.05827 41.7865 5.09082L41.7768 10.7695H43.8373C43.8699 10.7695 43.8861 10.7858 43.8861 10.8184V11.9512C43.8861 11.9837 43.8699 12 43.8373 12ZM50.191 12.0977C49.8362 12.0977 49.509 12.0065 49.2096 11.8242C48.9133 11.6419 48.6741 11.3994 48.4918 11.0967C48.3128 10.7907 48.2232 10.4554 48.2232 10.0908L48.233 6.92188C48.233 6.55078 48.3225 6.21712 48.5016 5.9209C48.6773 5.62142 48.915 5.38216 49.2145 5.20312C49.5139 5.02083 49.8395 4.92969 50.191 4.92969C50.5556 4.92969 50.8827 5.01921 51.1725 5.19824C51.4654 5.37728 51.6998 5.61816 51.8756 5.9209C52.0546 6.22038 52.1441 6.55404 52.1441 6.92188L52.1539 10.0908C52.1539 10.4554 52.066 10.7891 51.8902 11.0918C51.7112 11.3978 51.4736 11.6419 51.1773 11.8242C50.8811 12.0065 50.5523 12.0977 50.191 12.0977ZM50.191 10.8916C50.3928 10.8916 50.5686 10.8102 50.7184 10.6475C50.8681 10.4814 50.943 10.2959 50.943 10.0908L50.9332 6.92188C50.9332 6.70052 50.8632 6.51335 50.7232 6.36035C50.5833 6.20736 50.4059 6.13086 50.191 6.13086C49.9859 6.13086 49.8102 6.20573 49.6637 6.35547C49.5172 6.50521 49.4439 6.69401 49.4439 6.92188V10.0908C49.4439 10.3089 49.5172 10.4977 49.6637 10.6572C49.8102 10.8135 49.9859 10.8916 50.191 10.8916ZM57.8826 12H56.7498C56.7238 12 56.7107 11.9837 56.7107 11.9512L56.7303 5.09082C56.7303 5.05827 56.7433 5.04199 56.7693 5.04199H57.8924C57.9184 5.04199 57.9314 5.05827 57.9314 5.09082V7.45898L59.4988 5.08105C59.5249 5.05501 59.5493 5.04199 59.5721 5.04199H60.7195C60.7488 5.04199 60.7553 5.05501 60.7391 5.08105L59.0105 7.83984L60.949 11.9609C60.9653 11.987 60.949 12 60.9002 12H59.6795C59.6469 12 59.6274 11.987 59.6209 11.9609L58.2684 9.02148L57.9217 9.56836V11.9512C57.9217 11.9837 57.9087 12 57.8826 12ZM64.8613 11.9512L66.1016 5.08105C66.1081 5.05501 66.1243 5.04199 66.1504 5.04199H67.6006C67.6266 5.04199 67.6429 5.05501 67.6494 5.08105L68.8408 11.9512C68.8441 11.9837 68.8311 12 68.8018 12H67.6934C67.6608 12 67.6429 11.9837 67.6396 11.9512L67.5322 11.2188H66.1699L66.0625 11.9512C66.0592 11.9837 66.043 12 66.0137 12H64.9004C64.8743 12 64.8613 11.9837 64.8613 11.9512ZM66.8193 7.3418L66.3701 10.1494H67.332L66.9219 7.3418L66.8633 6.9707L66.8193 7.3418ZM76.5373 12H73.3049C73.2788 12 73.2658 11.9837 73.2658 11.9512L73.2756 5.09082C73.2756 5.05827 73.2919 5.04199 73.3244 5.04199H74.4377C74.4702 5.04199 74.4865 5.05827 74.4865 5.09082L74.4768 10.7695H76.5373C76.5699 10.7695 76.5861 10.7858 76.5861 10.8184V11.9512C76.5861 11.9837 76.5699 12 76.5373 12Z" fill="black"/>
<rect x="22.7742" y="16.6184" width="9.58908" height="79.3814" fill="black"/>
<rect width="9.27189" height="82.7988" transform="matrix(0.895653 -0.444754 0.557344 0.830281 0 20.7424)" fill="black"/>
<rect width="9.27189" height="82.7988" transform="matrix(0.895653 0.444754 -0.557344 0.830281 91.6956 16.6184)" fill="black"/>
<rect x="68.3223" y="16.6184" width="9.58908" height="79.3814" fill="black"/>
<ellipse cx="50.343" cy="88.7835" rx="5.99318" ry="5.15464" fill="black"/>
<path d="M41.9522 52.7004H58.7331C59.3689 52.7004 59.9787 52.4831 60.4282 52.0965C60.8778 51.7098 61.1304 51.1853 61.1304 50.6385V39.2983C61.1304 39.0249 61.0041 38.7627 60.7793 38.5693C60.5545 38.376 60.2496 38.2674 59.9317 38.2674H56.3358V37.4663C56.3358 34.7766 54.0548 32.3684 50.942 32.1076C50.1088 32.0363 49.2675 32.1159 48.4722 32.3412C47.6769 32.5664 46.9452 32.9324 46.3242 33.4155C45.7033 33.8986 45.2068 34.4881 44.8667 35.1462C44.5266 35.8043 44.3504 36.5163 44.3495 37.2364V38.2674H40.7536C40.4357 38.2674 40.1308 38.376 39.906 38.5693C39.6812 38.7627 39.5549 39.0249 39.5549 39.2983V50.6385C39.5549 51.1853 39.8075 51.7098 40.2571 52.0965C40.7067 52.4831 41.3164 52.7004 41.9522 52.7004ZM56.3358 40.3292V42.3911H53.9386V40.3292H56.3358ZM46.7467 37.2364C46.7467 35.5313 48.3601 34.1437 50.3427 34.1437C52.3252 34.1437 53.9386 35.5313 53.9386 37.2364V38.2674H46.7467V37.2364ZM44.3495 40.3292H46.7467V42.3911H44.3495V40.3292Z" fill="black"/>
</svg>
